<svg version="1.1" xmlns="http://www.w3.org/2000/svg" xmlns:xlink="http://www.w3.org/1999/xlink" width="1448" height="2417"><defs/><g><g/><g/><g/><g/><g/><g/><g/><g/><g/><g/><g/><g/><g/><g/><g/><g/><g/><g/><g/><g/><g/><g/><g/><g/><g/><g/><g/><g/><g/><g/><g/><g/><g/><g/><g/><g/><g/><g/><g/><g/><g/><g/><g/><g/><g/><g/><g/><g/><g/><g/><g/><g><rect fill="white" stroke="none" x="0" y="0" width="1448" height="2417"/></g><g><text fill="black" stroke="none" font-family="sans-serif" font-size="16.5pt" font-style="normal" font-weight="normal" text-decoration="normal" x="425.19351252830006" y="26.3876361" text-anchor="start" dominant-baseline="alphabetic" xml:space="preserve">Aries Basic Messaging between Data Owner and Researcher</text></g><g/><g><path fill="none" stroke="black" paint-order="fill stroke markers" d=" M 79.1629083 138.71100709899997 L 79.1629083 2417.7231782689996" stroke-miterlimit="10" stroke-width="1.4659797833333332" stroke-dasharray="13.532121076923076,5.863919133333333"/><path fill="none" stroke="black" paint-order="fill stroke markers" d=" M 372.9961516254557 138.71100709899997 L 372.9961516254557 2417.7231782689996" stroke-miterlimit="10" stroke-width="1.4659797833333332" stroke-dasharray="13.532121076923076,5.863919133333333"/><path fill="none" stroke="black" paint-order="fill stroke markers" d=" M 613.3004185104817 138.71100709899997 L 613.3004185104817 2417.7231782689996" stroke-miterlimit="10" stroke-width="1.4659797833333332" stroke-dasharray="13.532121076923076,5.863919133333333"/><path fill="none" stroke="black" paint-order="fill stroke markers" d=" M 832.0440345246341 138.71100709899997 L 832.0440345246341 2417.7231782689996" stroke-miterlimit="10" stroke-width="1.4659797833333332" stroke-dasharray="13.532121076923076,5.863919133333333"/><path fill="none" stroke="black" paint-order="fill stroke markers" d=" M 1072.0977673520429 138.71100709899997 L 1072.0977673520429 2417.7231782689996" stroke-miterlimit="10" stroke-width="1.4659797833333332" stroke-dasharray="13.532121076923076,5.863919133333333"/><path fill="none" stroke="black" paint-order="fill stroke markers" d=" M 1369.1879839441 138.71100709899997 L 1369.1879839441 2417.7231782689996" stroke-miterlimit="10" stroke-width="1.4659797833333332" stroke-dasharray="13.532121076923076,5.863919133333333"/></g><g><g><path fill="white" stroke="black" paint-order="fill stroke markers" d=" M 89.190210018 64.29787329699998 A 10.027301717999999 10.027301717999999 0 1 1 89.19020500434955 64.2878459969532 M 79.1629083 74.32517501499997 L 79.1629083 95.78711904299996 M 66.496842972 82.06554827099998 L 91.828973628 82.06554827099998 M 79.1629083 95.78711904299996 L 66.496842972 115.84172247899997 M 79.1629083 95.78711904299996 L 91.828973628 115.84172247899997" stroke-miterlimit="10" stroke-width="2.990598758" stroke-dasharray=""/></g><g><g/><text fill="black" stroke="none" font-family="sans-serif" font-size="11pt" font-style="normal" font-weight="normal" text-decoration="normal" x="42.09061215742187" y="133.43347987899998" text-anchor="start" dominant-baseline="alphabetic" xml:space="preserve">DataOwner</text></g><path fill="none" stroke="none"/><g><path fill="white" stroke="black" paint-order="fill stroke markers" d=" M 260.2083425881549 91.21326211899998 L 485.7839606627565 91.21326211899998 L 485.7839606627565 138.71100709899997 L 260.2083425881549 138.71100709899997 L 260.2083425881549 91.21326211899998 Z" stroke-miterlimit="10" stroke-width="2.814681184" stroke-dasharray=""/></g><g><g/><text fill="black" stroke="none" font-family="sans-serif" font-size="11pt" font-style="normal" font-weight="normal" text-decoration="normal" x="279.2953993671549" y="121.119249699" text-anchor="start" dominant-baseline="alphabetic" xml:space="preserve">Aries_DataOwner_Controller</text></g><path fill="none" stroke="none"/><g><path fill="white" stroke="black" paint-order="fill stroke markers" d=" M 513.1324977788449 91.21326211899998 L 713.4683392421184 91.21326211899998 L 713.4683392421184 138.71100709899997 L 513.1324977788449 138.71100709899997 L 513.1324977788449 91.21326211899998 Z" stroke-miterlimit="10" stroke-width="2.814681184" stroke-dasharray=""/></g><g><g/><text fill="black" stroke="none" font-family="sans-serif" font-size="11pt" font-style="normal" font-weight="normal" text-decoration="normal" x="532.219554557845" y="121.119249699" text-anchor="start" dominant-baseline="alphabetic" xml:space="preserve">Aries_DataOwner_Agent</text></g><path fill="none" stroke="none"/><g><path fill="white" stroke="black" paint-order="fill stroke markers" d=" M 731.0600966421184 91.21326211899998 L 933.0279724071497 91.21326211899998 L 933.0279724071497 138.71100709899997 L 731.0600966421184 138.71100709899997 L 731.0600966421184 91.21326211899998 Z" stroke-miterlimit="10" stroke-width="2.814681184" stroke-dasharray=""/></g><g><g/><text fill="black" stroke="none" font-family="sans-serif" font-size="11pt" font-style="normal" font-weight="normal" text-decoration="normal" x="750.1471534211184" y="121.119249699" text-anchor="start" dominant-baseline="alphabetic" xml:space="preserve">Aries_Researcher_Agent</text></g><path fill="none" stroke="none"/><g><path fill="white" stroke="black" paint-order="fill stroke markers" d=" M 958.4939411638632 91.21326211899998 L 1185.7015935402226 91.21326211899998 L 1185.7015935402226 138.71100709899997 L 958.4939411638632 138.71100709899997 L 958.4939411638632 91.21326211899998 Z" stroke-miterlimit="10" stroke-width="2.814681184" stroke-dasharray=""/></g><g><g/><text fill="black" stroke="none" font-family="sans-serif" font-size="11pt" font-style="normal" font-weight="normal" text-decoration="normal" x="977.5809979428632" y="121.119249699" text-anchor="start" dominant-baseline="alphabetic" xml:space="preserve">Aries_Researcher_Controller</text></g><g><path fill="white" stroke="black" paint-order="fill stroke markers" d=" M 1379.2152856621 64.29787329699998 A 10.027301717999999 10.027301717999999 0 1 1 1379.2152806484496 64.2878459969532 M 1369.1879839441 74.32517501499997 L 1369.1879839441 95.78711904299996 M 1356.5219186161 82.06554827099998 L 1381.8540492721002 82.06554827099998 M 1369.1879839441 95.78711904299996 L 1356.5219186161 115.84172247899997 M 1369.1879839441 95.78711904299996 L 1381.8540492721002 115.84172247899997" stroke-miterlimit="10" stroke-width="2.990598758" stroke-dasharray=""/></g><g><g/><text fill="black" stroke="none" font-family="sans-serif" font-size="11pt" font-style="normal" font-weight="normal" text-decoration="normal" x="1331.299670650643" y="133.43347987899998" text-anchor="start" dominant-baseline="alphabetic" xml:space="preserve">Researcher</text></g></g><g><g><g><rect fill="white" stroke="none" x="137.07001592548173" y="160.70070384899998" width="178.01902807449218" height="22.86928462"/></g><text fill="black" stroke="none" font-family="sans-serif" font-size="11pt" font-style="normal" font-weight="normal" text-decoration="normal" x="139.70877953548174" y="176.533285509" text-anchor="start" dominant-baseline="alphabetic" xml:space="preserve">Instantiate Aries Controller</text></g><g><path fill="none" stroke="black" paint-order="fill stroke markers" d=" M 79.1629083 183.56998846899998 L 370.06419205878905 183.56998846899998" stroke-miterlimit="10" stroke-width="1.4659797833333332" stroke-dasharray=""/><g transform="translate(372.9961516254557,183.56998846899998) translate(-372.9961516254557,-183.56998846899998)"><path fill="black" stroke="none" paint-order="stroke fill markers" d=" M 358.33635379212234 176.2400895523333 L 372.9961516254557 183.56998846899998 L 358.33635379212234 190.89988738566666 Z"/></g></g><g><g><rect fill="white" stroke="none" x="1131.6333616108252" y="196.76380651899998" width="178.01902807449218" height="22.86928462"/></g><text fill="black" stroke="none" font-family="sans-serif" font-size="11pt" font-style="normal" font-weight="normal" text-decoration="normal" x="1134.2721252208253" y="212.596388179" text-anchor="start" dominant-baseline="alphabetic" xml:space="preserve">Instantiate Aries Controller</text></g><g><path fill="none" stroke="black" paint-order="fill stroke markers" d=" M 1369.1879839441 219.633091139 L 1075.0297269187095 219.633091139" stroke-miterlimit="10" stroke-width="1.4659797833333332" stroke-dasharray=""/><g transform="translate(1072.0977673520429,219.633091139) translate(-1072.0977673520429,-219.633091139)"><path fill="black" stroke="none" paint-order="stroke fill markers" d=" M 1086.7575651853763 212.3031922223333 L 1072.0977673520429 219.633091139 L 1086.7575651853763 226.96299005566667 Z"/></g></g><g><g><rect fill="white" stroke="none" x="176.58323003680985" y="267.130836119" width="98.99259985183593" height="22.86928462"/></g><text fill="black" stroke="none" font-family="sans-serif" font-size="11pt" font-style="normal" font-weight="normal" text-decoration="normal" x="179.22199364680986" y="282.963417779" text-anchor="start" dominant-baseline="alphabetic" xml:space="preserve">Invite Request</text></g><g><path fill="none" stroke="black" paint-order="fill stroke markers" d=" M 79.1629083 290.00012073899995 L 370.06419205878905 290.00012073899995" stroke-miterlimit="10" stroke-width="1.4659797833333332" stroke-dasharray=""/><g transform="translate(372.9961516254557,290.00012073899995) translate(-372.9961516254557,-290.00012073899995)"><path fill="black" stroke="none" paint-order="stroke fill markers" d=" M 358.33635379212234 282.6702218223333 L 372.9961516254557 290.00012073899995 L 358.33635379212234 297.3300196556666 Z"/></g></g><g><g><rect fill="white" stroke="none" x="409.84024808150383" y="303.19393878899996" width="166.61607397292968" height="22.86928462"/></g><text fill="black" stroke="none" font-family="sans-serif" font-size="11pt" font-style="normal" font-weight="normal" text-decoration="normal" x="412.47901169150384" y="319.026520449" text-anchor="start" dominant-baseline="alphabetic" xml:space="preserve">POST Invitation Request</text></g><g><path fill="none" stroke="black" paint-order="fill stroke markers" d=" M 372.9961516254557 326.06322340899993 L 610.368458943815 326.06322340899993" stroke-miterlimit="10" stroke-width="1.4659797833333332" stroke-dasharray=""/><g transform="translate(613.3004185104817,326.06322340899993) translate(-613.3004185104817,-326.06322340899993)"><path fill="black" stroke="none" paint-order="stroke fill markers" d=" M 598.6406206771484 318.7333244923333 L 613.3004185104817 326.06322340899993 L 598.6406206771484 333.3931223256666 Z"/></g></g><g><g><rect fill="white" stroke="none" x="426.12873074751946" y="339.25704145899994" width="134.03910864089843" height="22.86928462"/></g><text fill="black" stroke="none" font-family="sans-serif" font-size="11pt" font-style="normal" font-weight="normal" text-decoration="normal" x="428.76749435751947" y="355.08962311899995" text-anchor="start" dominant-baseline="alphabetic" xml:space="preserve">Invitation Response</text></g><g><path fill="none" stroke="black" paint-order="fill stroke markers" d=" M 613.3004185104817 362.1263260789999 L 375.92811119212234 362.1263260789999" stroke-miterlimit="10" stroke-width="1.4659797833333332" stroke-dasharray=""/><g transform="translate(372.9961516254557,362.1263260789999) translate(-372.9961516254557,-362.1263260789999)"><path fill="black" stroke="none" paint-order="stroke fill markers" d=" M 387.65594945878905 354.79642716233326 L 372.9961516254557 362.1263260789999 L 387.65594945878905 369.45622499566656 Z"/></g></g><g><g><rect fill="white" stroke="none" x="393.81306454878904" y="375.3201441289999" width="191.08993566726562" height="22.86928462"/></g><text fill="black" stroke="none" font-family="sans-serif" font-size="11pt" font-style="normal" font-weight="normal" text-decoration="normal" x="396.45182815878906" y="391.15272578899993" text-anchor="start" dominant-baseline="alphabetic" xml:space="preserve">Keep State of Connection ID</text></g><g><path fill="none" stroke="black" paint-order="fill stroke markers" d=" M 372.9961516254557 398.18942874899994 L 443.3631812254557 398.18942874899994 L 443.3631812254557 421.0587133689999 L 375.92811119212234 421.0587133689999" stroke-miterlimit="10" stroke-width="1.4659797833333332" stroke-dasharray=""/><g transform="translate(372.9961516254557,421.0587133689999) translate(-372.9961516254557,-421.0587133689999)"><path fill="black" stroke="none" paint-order="stroke fill markers" d=" M 387.65594945878905 413.72881445233327 L 372.9961516254557 421.0587133689999 L 387.65594945878905 428.38861228566657 Z"/></g></g><g><g><rect fill="white" stroke="none" x="130.54173375995438" y="434.2525314189999" width="191.07559240554687" height="22.86928462"/></g><text fill="black" stroke="none" font-family="sans-serif" font-size="11pt" font-style="normal" font-weight="normal" text-decoration="normal" x="133.1804973699544" y="450.08511307899994" text-anchor="start" dominant-baseline="alphabetic" xml:space="preserve">Receive Invitation Response</text></g><g><path fill="none" stroke="black" paint-order="fill stroke markers" d=" M 372.9961516254557 457.1218160389999 L 82.09486786666666 457.1218160389999" stroke-miterlimit="10" stroke-width="1.4659797833333332" stroke-dasharray=""/><g transform="translate(79.1629083,457.1218160389999) translate(-79.1629083,-457.1218160389999)"><path fill="black" stroke="none" paint-order="stroke fill markers" d=" M 93.82270613333333 449.79191712233325 L 79.1629083 457.1218160389999 L 93.82270613333333 464.45171495566655 Z"/></g></g><g><g><rect fill="white" stroke="none" x="1102.3062208027197" y="517.8133790689999" width="236.67330969070312" height="22.86928462"/></g><text fill="black" stroke="none" font-family="sans-serif" font-size="11pt" font-style="normal" font-weight="normal" text-decoration="normal" x="1104.9449844127198" y="533.6459607289999" text-anchor="start" dominant-baseline="alphabetic" xml:space="preserve">Receive Invitation from Data Owner</text></g><g><path fill="none" stroke="black" paint-order="fill stroke markers" d=" M 1369.1879839441 540.6826636889999 L 1075.0297269187095 540.6826636889999" stroke-miterlimit="10" stroke-width="1.4659797833333332" stroke-dasharray=""/><g transform="translate(1072.0977673520429,540.6826636889999) translate(-1072.0977673520429,-540.6826636889999)"><path fill="black" stroke="none" paint-order="stroke fill markers" d=" M 1086.7575651853763 533.3527647723332 L 1072.0977673520429 540.6826636889999 L 1086.7575651853763 548.0125626056666 Z"/></g></g><g><g><rect fill="white" stroke="none" x="1156.475860390122" y="553.8764817389999" width="128.33403051589843" height="22.86928462"/></g><text fill="black" stroke="none" font-family="sans-serif" font-size="11pt" font-style="normal" font-weight="normal" text-decoration="normal" x="1159.1146240001221" y="569.7090633989999" text-anchor="start" dominant-baseline="alphabetic" xml:space="preserve">Accept Connection</text></g><g><path fill="none" stroke="black" paint-order="fill stroke markers" d=" M 1369.1879839441 576.745766359 L 1075.0297269187095 576.745766359" stroke-miterlimit="10" stroke-width="1.4659797833333332" stroke-dasharray=""/><g transform="translate(1072.0977673520429,576.745766359) translate(-1072.0977673520429,-576.745766359)"><path fill="black" stroke="none" paint-order="stroke fill markers" d=" M 1086.7575651853763 569.4158674423333 L 1072.0977673520429 576.745766359 L 1086.7575651853763 584.0756652756667 Z"/></g></g><g><g><rect fill="white" stroke="none" x="865.9103248893737" y="589.939584409" width="172.32115209792968" height="22.86928462"/></g><text fill="black" stroke="none" font-family="sans-serif" font-size="11pt" font-style="normal" font-weight="normal" text-decoration="normal" x="868.5490884993736" y="605.7721660689999" text-anchor="start" dominant-baseline="alphabetic" xml:space="preserve">POST Accept Connection</text></g><g><path fill="none" stroke="black" paint-order="fill stroke markers" d=" M 1072.0977673520429 612.808869029 L 834.9759940913008 612.808869029" stroke-miterlimit="10" stroke-width="1.4659797833333332" stroke-dasharray=""/><g transform="translate(832.0440345246341,612.808869029) translate(-832.0440345246341,-612.808869029)"><path fill="black" stroke="none" paint-order="stroke fill markers" d=" M 846.7038323579674 605.4789701123333 L 832.0440345246341 612.808869029 L 846.7038323579674 620.1387679456667 Z"/></g></g><g><g><rect fill="white" stroke="none" x="681.7514270799212" y="626.002687079" width="81.84159887527343" height="22.86928462"/></g><text fill="black" stroke="none" font-family="sans-serif" font-size="11pt" font-style="normal" font-weight="normal" text-decoration="normal" x="684.3901906899212" y="641.835268739" text-anchor="start" dominant-baseline="alphabetic" xml:space="preserve">DIDComm?</text></g><g><path fill="none" stroke="black" paint-order="fill stroke markers" d=" M 832.0440345246341 648.871971699 L 616.2323780771484 648.871971699" stroke-miterlimit="10" stroke-width="1.4659797833333332" stroke-dasharray=""/><g transform="translate(613.3004185104817,648.871971699) translate(-613.3004185104817,-648.871971699)"><path fill="black" stroke="none" paint-order="stroke fill markers" d=" M 627.960216343815 641.5420727823333 L 613.3004185104817 648.871971699 L 627.960216343815 656.2018706156667 Z"/></g></g><g><g><rect fill="white" stroke="none" x="646.4221729295306" y="662.065789749" width="152.50010717605468" height="22.86928462"/></g><text fill="black" stroke="none" font-family="sans-serif" font-size="11pt" font-style="normal" font-weight="normal" text-decoration="normal" x="649.0609365395305" y="677.898371409" text-anchor="start" dominant-baseline="alphabetic" xml:space="preserve">POST Webhook Event</text></g><g><path fill="none" stroke="black" paint-order="fill stroke markers" d=" M 832.0440345246341 684.9350743690001 L 616.2323780771484 684.9350743690001" stroke-miterlimit="10" stroke-width="1.4659797833333332" stroke-dasharray=""/><g transform="translate(613.3004185104817,684.9350743690001) translate(-613.3004185104817,-684.9350743690001)"><path fill="black" stroke="none" paint-order="stroke fill markers" d=" M 627.960216343815 677.6051754523334 L 613.3004185104817 684.9350743690001 L 627.960216343815 692.2649732856668 Z"/></g></g><g><g><rect fill="white" stroke="none" x="410.37355038863274" y="698.1288924190001" width="165.54946935867187" height="22.86928462"/></g><text fill="black" stroke="none" font-family="sans-serif" font-size="11pt" font-style="normal" font-weight="normal" text-decoration="normal" x="413.01231399863275" y="713.961474079" text-anchor="start" dominant-baseline="alphabetic" xml:space="preserve">Receive Webhook Event</text></g><g><path fill="none" stroke="black" paint-order="fill stroke markers" d=" M 613.3004185104817 720.9981770390001 L 375.92811119212234 720.9981770390001" stroke-miterlimit="10" stroke-width="1.4659797833333332" stroke-dasharray=""/><g transform="translate(372.9961516254557,720.9981770390001) translate(-372.9961516254557,-720.9981770390001)"><path fill="black" stroke="none" paint-order="stroke fill markers" d=" M 387.65594945878905 713.6682781223334 L 372.9961516254557 720.9981770390001 L 387.65594945878905 728.3280759556668 Z"/></g></g><g><g><rect fill="white" stroke="none" x="681.7514270799212" y="734.1919950890001" width="81.84159887527343" height="22.86928462"/></g><text fill="black" stroke="none" font-family="sans-serif" font-size="11pt" font-style="normal" font-weight="normal" text-decoration="normal" x="684.3901906899212" y="750.0245767490001" text-anchor="start" dominant-baseline="alphabetic" xml:space="preserve">DIDComm?</text></g><g><path fill="none" stroke="black" paint-order="fill stroke markers" d=" M 613.3004185104817 757.0612797090001 L 829.1120749579674 757.0612797090001" stroke-miterlimit="10" stroke-width="1.4659797833333332" stroke-dasharray=""/><g transform="translate(832.0440345246341,757.0612797090001) translate(-832.0440345246341,-757.0612797090001)"><path fill="black" stroke="none" paint-order="stroke fill markers" d=" M 817.3842366913008 749.7313807923334 L 832.0440345246341 757.0612797090001 L 817.3842366913008 764.3911786256668 Z"/></g></g><g><g><rect fill="white" stroke="none" x="852.8609474479674" y="770.2550977590001" width="198.41990698074218" height="22.86928462"/></g><text fill="black" stroke="none" font-family="sans-serif" font-size="11pt" font-style="normal" font-weight="normal" text-decoration="normal" x="855.4997110579674" y="786.0876794190001" text-anchor="start" dominant-baseline="alphabetic" xml:space="preserve">Accept Connection Response</text></g><g><path fill="none" stroke="black" paint-order="fill stroke markers" d=" M 832.0440345246341 793.1243823790002 L 1069.1658077853763 793.1243823790002" stroke-miterlimit="10" stroke-width="1.4659797833333332" stroke-dasharray=""/><g transform="translate(1072.0977673520429,793.1243823790002) translate(-1072.0977673520429,-793.1243823790002)"><path fill="black" stroke="none" paint-order="stroke fill markers" d=" M 1057.4379695187095 785.7944834623335 L 1072.0977673520429 793.1243823790002 L 1057.4379695187095 800.4542812956669 Z"/></g></g><g><g><rect fill="white" stroke="none" x="1092.9146802753762" y="806.3182004290002" width="191.08993566726562" height="22.86928462"/></g><text fill="black" stroke="none" font-family="sans-serif" font-size="11pt" font-style="normal" font-weight="normal" text-decoration="normal" x="1095.5534438853763" y="822.1507820890001" text-anchor="start" dominant-baseline="alphabetic" xml:space="preserve">Keep State of Connection ID</text></g><g><path fill="none" stroke="black" paint-order="fill stroke markers" d=" M 1072.0977673520429 829.1874850490001 L 1142.464796952043 829.1874850490001 L 1142.464796952043 852.0567696690001 L 1075.0297269187095 852.0567696690001" stroke-miterlimit="10" stroke-width="1.4659797833333332" stroke-dasharray=""/><g transform="translate(1072.0977673520429,852.0567696690001) translate(-1072.0977673520429,-852.0567696690001)"><path fill="black" stroke="none" paint-order="stroke fill markers" d=" M 1086.7575651853763 844.7268707523334 L 1072.0977673520429 852.0567696690001 L 1086.7575651853763 859.3866685856668 Z"/></g></g><g><g><rect fill="white" stroke="none" x="1092.914680275376" y="865.2505877190001" width="255.45639074539062" height="22.86928462"/></g><text fill="black" stroke="none" font-family="sans-serif" font-size="11pt" font-style="normal" font-weight="normal" text-decoration="normal" x="1095.553443885376" y="881.0831693790001" text-anchor="start" dominant-baseline="alphabetic" xml:space="preserve">Receive Connection Accept Response</text></g><g><path fill="none" stroke="black" paint-order="fill stroke markers" d=" M 1072.0977673520429 888.1198723390002 L 1366.2560243774335 888.1198723390002" stroke-miterlimit="10" stroke-width="1.4659797833333332" stroke-dasharray=""/><g transform="translate(1369.1879839441,888.1198723390002) translate(-1369.1879839441,-888.1198723390002)"><path fill="black" stroke="none" paint-order="stroke fill markers" d=" M 1354.5281861107667 880.7899734223334 L 1369.1879839441 888.1198723390002 L 1354.5281861107667 895.4497712556669 Z"/></g></g><g><g><rect fill="white" stroke="none" x="171.69418432147782" y="948.8114353690002" width="108.7706912825" height="22.86928462"/></g><text fill="black" stroke="none" font-family="sans-serif" font-size="11pt" font-style="normal" font-weight="normal" text-decoration="normal" x="174.33294793147783" y="964.6440170290001" text-anchor="start" dominant-baseline="alphabetic" xml:space="preserve">Accept Request</text></g><g><path fill="none" stroke="black" paint-order="fill stroke markers" d=" M 79.1629083 971.6807199890002 L 370.06419205878905 971.6807199890002" stroke-miterlimit="10" stroke-width="1.4659797833333332" stroke-dasharray=""/><g transform="translate(372.9961516254557,971.6807199890002) translate(-372.9961516254557,-971.6807199890002)"><path fill="black" stroke="none" paint-order="stroke fill markers" d=" M 358.33635379212234 964.3508210723335 L 372.9961516254557 971.6807199890002 L 358.33635379212234 979.0106189056669 Z"/></g></g><g><g><rect fill="white" stroke="none" x="416.76937863570305" y="984.8745380390002" width="152.75781286453125" height="22.86928462"/></g><text fill="black" stroke="none" font-family="sans-serif" font-size="11pt" font-style="normal" font-weight="normal" text-decoration="normal" x="419.40814224570306" y="1000.7071196990001" text-anchor="start" dominant-baseline="alphabetic" xml:space="preserve">POST Accept Request</text></g><g><path fill="none" stroke="black" paint-order="fill stroke markers" d=" M 372.9961516254557 1007.7438226590002 L 610.368458943815 1007.7438226590002" stroke-miterlimit="10" stroke-width="1.4659797833333332" stroke-dasharray=""/><g transform="translate(613.3004185104817,1007.7438226590002) translate(-613.3004185104817,-1007.7438226590002)"><path fill="black" stroke="none" paint-order="stroke fill markers" d=" M 598.6406206771484 1000.4139237423335 L 613.3004185104817 1007.7438226590002 L 598.6406206771484 1015.0737215756669 Z"/></g></g><g><g><rect fill="white" stroke="none" x="681.7514270799212" y="1020.9376407090002" width="81.84159887527343" height="22.86928462"/></g><text fill="black" stroke="none" font-family="sans-serif" font-size="11pt" font-style="normal" font-weight="normal" text-decoration="normal" x="684.3901906899212" y="1036.770222369" text-anchor="start" dominant-baseline="alphabetic" xml:space="preserve">DIDComm?</text></g><g><path fill="none" stroke="black" paint-order="fill stroke markers" d=" M 613.3004185104817 1043.8069253290003 L 829.1120749579674 1043.8069253290003" stroke-miterlimit="10" stroke-width="1.4659797833333332" stroke-dasharray=""/><g transform="translate(832.0440345246341,1043.8069253290003) translate(-832.0440345246341,-1043.8069253290003)"><path fill="black" stroke="none" paint-order="stroke fill markers" d=" M 817.3842366913008 1036.4770264123335 L 832.0440345246341 1043.8069253290003 L 817.3842366913008 1051.136824245667 Z"/></g></g><g><g><rect fill="white" stroke="none" x="646.4221729295306" y="1057.0007433790004" width="152.50010717605468" height="22.86928462"/></g><text fill="black" stroke="none" font-family="sans-serif" font-size="11pt" font-style="normal" font-weight="normal" text-decoration="normal" x="649.0609365395305" y="1072.8333250390003" text-anchor="start" dominant-baseline="alphabetic" xml:space="preserve">POST Webhook Event</text></g><g><path fill="none" stroke="black" paint-order="fill stroke markers" d=" M 613.3004185104817 1079.8700279990003 L 829.1120749579674 1079.8700279990003" stroke-miterlimit="10" stroke-width="1.4659797833333332" stroke-dasharray=""/><g transform="translate(832.0440345246341,1079.8700279990003) translate(-832.0440345246341,-1079.8700279990003)"><path fill="black" stroke="none" paint-order="stroke fill markers" d=" M 817.3842366913008 1072.5401290823336 L 832.0440345246341 1079.8700279990003 L 817.3842366913008 1087.199926915667 Z"/></g></g><g><g><rect fill="white" stroke="none" x="869.2961662590026" y="1093.0638460490004" width="165.54946935867187" height="22.86928462"/></g><text fill="black" stroke="none" font-family="sans-serif" font-size="11pt" font-style="normal" font-weight="normal" text-decoration="normal" x="871.9349298690025" y="1108.8964277090004" text-anchor="start" dominant-baseline="alphabetic" xml:space="preserve">Receive Webhook Event</text></g><g><path fill="none" stroke="black" paint-order="fill stroke markers" d=" M 832.0440345246341 1115.9331306690003 L 1069.1658077853763 1115.9331306690003" stroke-miterlimit="10" stroke-width="1.4659797833333332" stroke-dasharray=""/><g transform="translate(1072.0977673520429,1115.9331306690003) translate(-1072.0977673520429,-1115.9331306690003)"><path fill="black" stroke="none" paint-order="stroke fill markers" d=" M 1057.4379695187095 1108.6032317523336 L 1072.0977673520429 1115.9331306690003 L 1057.4379695187095 1123.263029585667 Z"/></g></g><g><g><rect fill="white" stroke="none" x="681.7514270799212" y="1129.1269487190004" width="81.84159887527343" height="22.86928462"/></g><text fill="black" stroke="none" font-family="sans-serif" font-size="11pt" font-style="normal" font-weight="normal" text-decoration="normal" x="684.3901906899212" y="1144.9595303790004" text-anchor="start" dominant-baseline="alphabetic" xml:space="preserve">DIDComm?</text></g><g><path fill="none" stroke="black" paint-order="fill stroke markers" d=" M 832.0440345246341 1151.9962333390004 L 616.2323780771484 1151.9962333390004" stroke-miterlimit="10" stroke-width="1.4659797833333332" stroke-dasharray=""/><g transform="translate(613.3004185104817,1151.9962333390004) translate(-613.3004185104817,-1151.9962333390004)"><path fill="black" stroke="none" paint-order="stroke fill markers" d=" M 627.960216343815 1144.6663344223336 L 613.3004185104817 1151.9962333390004 L 627.960216343815 1159.326132255667 Z"/></g></g><g><g><rect fill="white" stroke="none" x="403.7200011942968" y="1165.1900513890005" width="178.85656774734375" height="22.86928462"/></g><text fill="black" stroke="none" font-family="sans-serif" font-size="11pt" font-style="normal" font-weight="normal" text-decoration="normal" x="406.3587648042968" y="1181.0226330490004" text-anchor="start" dominant-baseline="alphabetic" xml:space="preserve">Accept Request Response</text></g><g><path fill="none" stroke="black" paint-order="fill stroke markers" d=" M 613.3004185104817 1188.0593360090004 L 375.92811119212234 1188.0593360090004" stroke-miterlimit="10" stroke-width="1.4659797833333332" stroke-dasharray=""/><g transform="translate(372.9961516254557,1188.0593360090004) translate(-372.9961516254557,-1188.0593360090004)"><path fill="black" stroke="none" paint-order="stroke fill markers" d=" M 387.65594945878905 1180.7294370923337 L 372.9961516254557 1188.0593360090004 L 387.65594945878905 1195.389234925667 Z"/></g></g><g><g><rect fill="white" stroke="none" x="108.13300420673174" y="1201.2531540590005" width="235.89305151199218" height="22.86928462"/></g><text fill="black" stroke="none" font-family="sans-serif" font-size="11pt" font-style="normal" font-weight="normal" text-decoration="normal" x="110.77176781673174" y="1217.0857357190005" text-anchor="start" dominant-baseline="alphabetic" xml:space="preserve">Receive Accept Request Response</text></g><g><path fill="none" stroke="black" paint-order="fill stroke markers" d=" M 372.9961516254557 1224.1224386790004 L 82.09486786666666 1224.1224386790004" stroke-miterlimit="10" stroke-width="1.4659797833333332" stroke-dasharray=""/><g transform="translate(79.1629083,1224.1224386790004) translate(-79.1629083,-1224.1224386790004)"><path fill="black" stroke="none" paint-order="stroke fill markers" d=" M 93.82270613333333 1216.7925397623337 L 79.1629083 1224.1224386790004 L 93.82270613333333 1231.4523375956671 Z"/></g></g><g><g><rect fill="white" stroke="none" x="153.36203863055985" y="1284.8140017090004" width="145.43498266433593" height="22.86928462"/></g><text fill="black" stroke="none" font-family="sans-serif" font-size="11pt" font-style="normal" font-weight="normal" text-decoration="normal" x="156.00080224055986" y="1300.6465833690004" text-anchor="start" dominant-baseline="alphabetic" xml:space="preserve">Get Connection by ID</text></g><g><path fill="none" stroke="black" paint-order="fill stroke markers" d=" M 79.1629083 1307.6832863290003 L 370.06419205878905 1307.6832863290003" stroke-miterlimit="10" stroke-width="1.4659797833333332" stroke-dasharray=""/><g transform="translate(372.9961516254557,1307.6832863290003) translate(-372.9961516254557,-1307.6832863290003)"><path fill="black" stroke="none" paint-order="stroke fill markers" d=" M 358.33635379212234 1300.3533874123336 L 372.9961516254557 1307.6832863290003 L 358.33635379212234 1315.013185245667 Z"/></g></g><g><g><rect fill="white" stroke="none" x="394.76508328658196" y="1320.8771043790005" width="196.76640356277343" height="22.86928462"/></g><text fill="black" stroke="none" font-family="sans-serif" font-size="11pt" font-style="normal" font-weight="normal" text-decoration="normal" x="397.40384689658197" y="1336.7096860390004" text-anchor="start" dominant-baseline="alphabetic" xml:space="preserve">POST Get Connection Status</text></g><g><path fill="none" stroke="black" paint-order="fill stroke markers" d=" M 372.9961516254557 1343.7463889990004 L 610.368458943815 1343.7463889990004" stroke-miterlimit="10" stroke-width="1.4659797833333332" stroke-dasharray=""/><g transform="translate(613.3004185104817,1343.7463889990004) translate(-613.3004185104817,-1343.7463889990004)"><path fill="black" stroke="none" paint-order="stroke fill markers" d=" M 598.6406206771484 1336.4164900823337 L 613.3004185104817 1343.7463889990004 L 598.6406206771484 1351.076287915667 Z"/></g></g><g><g><rect fill="white" stroke="none" x="428.16522977095696" y="1356.9402070490005" width="129.96611059402343" height="22.86928462"/></g><text fill="black" stroke="none" font-family="sans-serif" font-size="11pt" font-style="normal" font-weight="normal" text-decoration="normal" x="430.80399338095697" y="1372.7727887090005" text-anchor="start" dominant-baseline="alphabetic" xml:space="preserve">Request Response</text></g><g><path fill="none" stroke="black" paint-order="fill stroke markers" d=" M 613.3004185104817 1379.8094916690004 L 375.92811119212234 1379.8094916690004" stroke-miterlimit="10" stroke-width="1.4659797833333332" stroke-dasharray=""/><g transform="translate(372.9961516254557,1379.8094916690004) translate(-372.9961516254557,-1379.8094916690004)"><path fill="black" stroke="none" paint-order="stroke fill markers" d=" M 387.65594945878905 1372.4795927523337 L 372.9961516254557 1379.8094916690004 L 387.65594945878905 1387.1393905856671 Z"/></g></g><g><g><rect fill="white" stroke="none" x="99.9798212233333" y="1393.0033097190005" width="252.19941747878906" height="22.86928462"/></g><text fill="black" stroke="none" font-family="sans-serif" font-size="11pt" font-style="normal" font-weight="normal" text-decoration="normal" x="102.6185848333333" y="1408.8358913790005" text-anchor="start" dominant-baseline="alphabetic" xml:space="preserve">Receive Connection Status Response</text></g><g><path fill="none" stroke="black" paint-order="fill stroke markers" d=" M 372.9961516254557 1415.8725943390004 L 82.09486786666666 1415.8725943390004" stroke-miterlimit="10" stroke-width="1.4659797833333332" stroke-dasharray=""/><g transform="translate(79.1629083,1415.8725943390004) translate(-79.1629083,-1415.8725943390004)"><path fill="black" stroke="none" paint-order="stroke fill markers" d=" M 93.82270613333333 1408.5426954223337 L 79.1629083 1415.8725943390004 L 93.82270613333333 1423.2024932556672 Z"/></g></g><g><g><rect fill="white" stroke="none" x="99.97982122333333" y="1476.5641573690002" width="206.78068578933593" height="22.86928462"/></g><text fill="black" stroke="none" font-family="sans-serif" font-size="11pt" font-style="normal" font-weight="normal" text-decoration="normal" x="102.61858483333333" y="1492.3967390290002" text-anchor="start" dominant-baseline="alphabetic" xml:space="preserve">If Connection Status != "active"</text></g><g><path fill="none" stroke="black" paint-order="fill stroke markers" d=" M 79.1629083 1499.4334419890004 L 149.5299379 1499.4334419890004 L 149.5299379 1522.3027266090003 L 82.09486786666666 1522.3027266090003" stroke-miterlimit="10" stroke-width="1.4659797833333332" stroke-dasharray=""/><g transform="translate(79.1629083,1522.3027266090003) translate(-79.1629083,-1522.3027266090003)"><path fill="black" stroke="none" paint-order="stroke fill markers" d=" M 93.82270613333333 1514.9728276923336 L 79.1629083 1522.3027266090003 L 93.82270613333333 1529.632625525667 Z"/></g></g><g><g><rect fill="white" stroke="none" x="114.51452733905596" y="1535.4965446590004" width="223.13000524734375" height="22.86928462"/></g><text fill="black" stroke="none" font-family="sans-serif" font-size="11pt" font-style="normal" font-weight="normal" text-decoration="normal" x="117.15329094905596" y="1551.3291263190004" text-anchor="start" dominant-baseline="alphabetic" xml:space="preserve">Send Trust Ping to Connection ID</text></g><g><path fill="none" stroke="black" paint-order="fill stroke markers" d=" M 79.1629083 1558.3658292790003 L 370.06419205878905 1558.3658292790003" stroke-miterlimit="10" stroke-width="1.4659797833333332" stroke-dasharray=""/><g transform="translate(372.9961516254557,1558.3658292790003) translate(-372.9961516254557,-1558.3658292790003)"><path fill="black" stroke="none" paint-order="stroke fill markers" d=" M 358.33635379212234 1551.0359303623336 L 372.9961516254557 1558.3658292790003 L 358.33635379212234 1565.695728195667 Z"/></g></g><g><g><rect fill="white" stroke="none" x="435.38068387251946" y="1571.5596473290004" width="115.53520239089843" height="22.86928462"/></g><text fill="black" stroke="none" font-family="sans-serif" font-size="11pt" font-style="normal" font-weight="normal" text-decoration="normal" x="438.01944748251947" y="1587.3922289890004" text-anchor="start" dominant-baseline="alphabetic" xml:space="preserve">POST Trust Ping</text></g><g><path fill="none" stroke="black" paint-order="fill stroke markers" d=" M 372.9961516254557 1594.4289319490003 L 610.368458943815 1594.4289319490003" stroke-miterlimit="10" stroke-width="1.4659797833333332" stroke-dasharray=""/><g transform="translate(613.3004185104817,1594.4289319490003) translate(-613.3004185104817,-1594.4289319490003)"><path fill="black" stroke="none" paint-order="stroke fill markers" d=" M 598.6406206771484 1587.0990330323336 L 613.3004185104817 1594.4289319490003 L 598.6406206771484 1601.758830865667 Z"/></g></g><g><g><rect fill="white" stroke="none" x="667.7428592698626" y="1607.6227499990005" width="109.85873449539062" height="22.86928462"/></g><text fill="black" stroke="none" font-family="sans-serif" font-size="11pt" font-style="normal" font-weight="normal" text-decoration="normal" x="670.3816228798626" y="1623.4553316590004" text-anchor="start" dominant-baseline="alphabetic" xml:space="preserve">Send Trust Ping</text></g><g><path fill="none" stroke="black" paint-order="fill stroke markers" d=" M 613.3004185104817 1630.4920346190004 L 829.1120749579674 1630.4920346190004" stroke-miterlimit="10" stroke-width="1.4659797833333332" stroke-dasharray=""/><g transform="translate(832.0440345246341,1630.4920346190004) translate(-832.0440345246341,-1630.4920346190004)"><path fill="black" stroke="none" paint-order="stroke fill markers" d=" M 817.3842366913008 1623.1621357023337 L 832.0440345246341 1630.4920346190004 L 817.3842366913008 1637.821933535667 Z"/></g></g><g><g><rect fill="white" stroke="none" x="646.4221729295306" y="1643.6858526690005" width="152.50010717605468" height="22.86928462"/></g><text fill="black" stroke="none" font-family="sans-serif" font-size="11pt" font-style="normal" font-weight="normal" text-decoration="normal" x="649.0609365395305" y="1659.5184343290005" text-anchor="start" dominant-baseline="alphabetic" xml:space="preserve">POST Webhook Event</text></g><g><path fill="none" stroke="black" paint-order="fill stroke markers" d=" M 613.3004185104817 1666.5551372890004 L 829.1120749579674 1666.5551372890004" stroke-miterlimit="10" stroke-width="1.4659797833333332" stroke-dasharray=""/><g transform="translate(832.0440345246341,1666.5551372890004) translate(-832.0440345246341,-1666.5551372890004)"><path fill="black" stroke="none" paint-order="stroke fill markers" d=" M 817.3842366913008 1659.2252383723337 L 832.0440345246341 1666.5551372890004 L 817.3842366913008 1673.8850362056671 Z"/></g></g><g><g><rect fill="white" stroke="none" x="869.2961662590026" y="1679.7489553390005" width="165.54946935867187" height="22.86928462"/></g><text fill="black" stroke="none" font-family="sans-serif" font-size="11pt" font-style="normal" font-weight="normal" text-decoration="normal" x="871.9349298690025" y="1695.5815369990005" text-anchor="start" dominant-baseline="alphabetic" xml:space="preserve">Receive Webhook Event</text></g><g><path fill="none" stroke="black" paint-order="fill stroke markers" d=" M 832.0440345246341 1702.6182399590004 L 1069.1658077853763 1702.6182399590004" stroke-miterlimit="10" stroke-width="1.4659797833333332" stroke-dasharray=""/><g transform="translate(1072.0977673520429,1702.6182399590004) translate(-1072.0977673520429,-1702.6182399590004)"><path fill="black" stroke="none" paint-order="stroke fill markers" d=" M 1057.4379695187095 1695.2883410423337 L 1072.0977673520429 1702.6182399590004 L 1057.4379695187095 1709.9481388756672 Z"/></g></g><g><g><rect fill="white" stroke="none" x="651.8552478807024" y="1715.8120580090006" width="141.63395727371093" height="22.86928462"/></g><text fill="black" stroke="none" font-family="sans-serif" font-size="11pt" font-style="normal" font-weight="normal" text-decoration="normal" x="654.4940114907024" y="1731.6446396690005" text-anchor="start" dominant-baseline="alphabetic" xml:space="preserve">Response Trust Ping</text></g><g><path fill="none" stroke="black" paint-order="fill stroke markers" d=" M 832.0440345246341 1738.6813426290005 L 616.2323780771484 1738.6813426290005" stroke-miterlimit="10" stroke-width="1.4659797833333332" stroke-dasharray=""/><g transform="translate(613.3004185104817,1738.6813426290005) translate(-613.3004185104817,-1738.6813426290005)"><path fill="black" stroke="none" paint-order="stroke fill markers" d=" M 627.960216343815 1731.3514437123338 L 613.3004185104817 1738.6813426290005 L 627.960216343815 1746.0112415456672 Z"/></g></g><g><g><rect fill="white" stroke="none" x="393.813064548789" y="1751.8751606790006" width="198.67044103835937" height="22.86928462"/></g><text fill="black" stroke="none" font-family="sans-serif" font-size="11pt" font-style="normal" font-weight="normal" text-decoration="normal" x="396.451828158789" y="1767.7077423390006" text-anchor="start" dominant-baseline="alphabetic" xml:space="preserve">Receive Trust Ping Response</text></g><g><path fill="none" stroke="black" paint-order="fill stroke markers" d=" M 613.3004185104817 1774.7444452990005 L 375.92811119212234 1774.7444452990005" stroke-miterlimit="10" stroke-width="1.4659797833333332" stroke-dasharray=""/><g transform="translate(372.9961516254557,1774.7444452990005) translate(-372.9961516254557,-1774.7444452990005)"><path fill="black" stroke="none" paint-order="stroke fill markers" d=" M 387.65594945878905 1767.4145463823338 L 372.9961516254557 1774.7444452990005 L 387.65594945878905 1782.0743442156672 Z"/></g></g><g><g><rect fill="white" stroke="none" x="99.97982122333333" y="1787.9382633490004" width="199.04983556960937" height="22.86928462"/></g><text fill="black" stroke="none" font-family="sans-serif" font-size="11pt" font-style="normal" font-weight="normal" text-decoration="normal" x="102.61858483333333" y="1803.7708450090004" text-anchor="start" dominant-baseline="alphabetic" xml:space="preserve">Connection Status == "active"</text></g><g><path fill="none" stroke="black" paint-order="fill stroke markers" d=" M 79.1629083 1810.8075479690006 L 149.5299379 1810.8075479690006 L 149.5299379 1833.6768325890005 L 82.09486786666666 1833.6768325890005" stroke-miterlimit="10" stroke-width="1.4659797833333332" stroke-dasharray=""/><g transform="translate(79.1629083,1833.6768325890005) translate(-79.1629083,-1833.6768325890005)"><path fill="black" stroke="none" paint-order="stroke fill markers" d=" M 93.82270613333333 1826.3469336723338 L 79.1629083 1833.6768325890005 L 93.82270613333333 1841.0067315056672 Z"/></g></g><path fill="white" stroke="black" paint-order="fill stroke markers" d=" M 63.330326639999996 1846.8706506390006 L 372.99615162545564 1846.8706506390006 L 388.82873328545566 1862.7032322990005 L 388.82873328545566 1887.3316926590005 L 63.330326639999996 1887.3316926590005 L 63.330326639999996 1846.8706506390006 M 372.99615162545564 1846.8706506390006 L 372.99615162545564 1862.7032322990005 L 388.82873328545566 1862.7032322990005" stroke-miterlimit="10" stroke-width="1.4659797833333332" stroke-dasharray=""/><g><text fill="black" stroke="none" font-family="sans-serif" font-size="11pt" font-style="normal" font-weight="normal" text-decoration="normal" x="140.50690575618484" y="1871.4991109990003" text-anchor="start" dominant-baseline="alphabetic" xml:space="preserve">Connection in </text><text fill="black" stroke="none" font-family="sans-serif" font-size="11pt" font-style="normal" font-weight="bold" text-decoration="normal" x="234.22913476009109" y="1871.4991109990003" text-anchor="start" dominant-baseline="alphabetic" xml:space="preserve">active</text><text fill="black" stroke="none" font-family="sans-serif" font-size="11pt" font-style="normal" font-weight="normal" text-decoration="normal" x="275.7967617132161" y="1871.4991109990003" text-anchor="start" dominant-baseline="alphabetic" xml:space="preserve"> state</text></g><g><g><rect fill="white" stroke="none" x="154.58252813251298" y="1948.0232556890005" width="142.99400366042968" height="22.86928462"/></g><text fill="black" stroke="none" font-family="sans-serif" font-size="11pt" font-style="normal" font-weight="normal" text-decoration="normal" x="157.221291742513" y="1963.8558373490005" text-anchor="start" dominant-baseline="alphabetic" xml:space="preserve">Send Basic Message</text></g><g><path fill="none" stroke="black" paint-order="fill stroke markers" d=" M 79.1629083 1970.8925403090004 L 370.06419205878905 1970.8925403090004" stroke-miterlimit="10" stroke-width="1.4659797833333332" stroke-dasharray=""/><g transform="translate(372.9961516254557,1970.8925403090004) translate(-372.9961516254557,-1970.8925403090004)"><path fill="black" stroke="none" paint-order="stroke fill markers" d=" M 358.33635379212234 1963.5626413923337 L 372.9961516254557 1970.8925403090004 L 358.33635379212234 1978.2224392256671 Z"/></g></g><g><g><rect fill="white" stroke="none" x="418.8130492899999" y="1984.0863583590005" width="148.6704715559375" height="22.86928462"/></g><text fill="black" stroke="none" font-family="sans-serif" font-size="11pt" font-style="normal" font-weight="normal" text-decoration="normal" x="421.45181289999994" y="1999.9189400190005" text-anchor="start" dominant-baseline="alphabetic" xml:space="preserve">POST Basic Message</text></g><g><path fill="none" stroke="black" paint-order="fill stroke markers" d=" M 372.9961516254557 2006.9556429790005 L 610.368458943815 2006.9556429790005" stroke-miterlimit="10" stroke-width="1.4659797833333332" stroke-dasharray=""/><g transform="translate(613.3004185104817,2006.9556429790005) translate(-613.3004185104817,-2006.9556429790005)"><path fill="black" stroke="none" paint-order="stroke fill markers" d=" M 598.6406206771484 1999.6257440623338 L 613.3004185104817 2006.9556429790005 L 598.6406206771484 2014.2855418956672 Z"/></g></g><g><g><rect fill="white" stroke="none" x="685.8280185716204" y="2020.1494610290006" width="73.688415891875" height="22.86928462"/></g><text fill="black" stroke="none" font-family="sans-serif" font-size="11pt" font-style="normal" font-weight="normal" text-decoration="normal" x="688.4667821816204" y="2035.9820426890005" text-anchor="start" dominant-baseline="alphabetic" xml:space="preserve">DIDComm</text></g><g><path fill="none" stroke="black" paint-order="fill stroke markers" d=" M 613.3004185104817 2043.0187456490005 L 829.1120749579674 2043.0187456490005" stroke-miterlimit="10" stroke-width="1.4659797833333332" stroke-dasharray=""/><g transform="translate(832.0440345246341,2043.0187456490005) translate(-832.0440345246341,-2043.0187456490005)"><path fill="black" stroke="none" paint-order="stroke fill markers" d=" M 817.3842366913008 2035.6888467323338 L 832.0440345246341 2043.0187456490005 L 817.3842366913008 2050.348644565667 Z"/></g></g><g><g><rect fill="white" stroke="none" x="871.2109840690612" y="2056.2125636990004" width="161.71983373855468" height="22.86928462"/></g><text fill="black" stroke="none" font-family="sans-serif" font-size="11pt" font-style="normal" font-weight="normal" text-decoration="normal" x="873.8497476790611" y="2072.0451453590003" text-anchor="start" dominant-baseline="alphabetic" xml:space="preserve">Receive Basic Message</text></g><g><path fill="none" stroke="black" paint-order="fill stroke markers" d=" M 832.0440345246341 2079.0818483190005 L 1069.1658077853763 2079.0818483190005" stroke-miterlimit="10" stroke-width="1.4659797833333332" stroke-dasharray=""/><g transform="translate(1072.0977673520429,2079.0818483190005) translate(-1072.0977673520429,-2079.0818483190005)"><path fill="black" stroke="none" paint-order="stroke fill markers" d=" M 1057.4379695187095 2071.751949402334 L 1072.0977673520429 2079.0818483190005 L 1057.4379695187095 2086.411747235667 Z"/></g></g><g><g><rect fill="white" stroke="none" x="1139.782958778794" y="2092.275666369" width="161.71983373855468" height="22.86928462"/></g><text fill="black" stroke="none" font-family="sans-serif" font-size="11pt" font-style="normal" font-weight="normal" text-decoration="normal" x="1142.421722388794" y="2108.108248029" text-anchor="start" dominant-baseline="alphabetic" xml:space="preserve">Receive Basic Message</text></g><g><path fill="none" stroke="black" paint-order="fill stroke markers" d=" M 1072.0977673520429 2115.1449509890003 L 1366.2560243774335 2115.1449509890003" stroke-miterlimit="10" stroke-width="1.4659797833333332" stroke-dasharray=""/><g transform="translate(1369.1879839441,2115.1449509890003) translate(-1369.1879839441,-2115.1449509890003)"><path fill="black" stroke="none" paint-order="stroke fill markers" d=" M 1354.5281861107667 2107.815052072334 L 1369.1879839441 2115.1449509890003 L 1354.5281861107667 2122.474849905667 Z"/></g></g><g><g><rect fill="white" stroke="none" x="1149.1458738178565" y="2175.8365140190003" width="142.99400366042968" height="22.86928462"/></g><text fill="black" stroke="none" font-family="sans-serif" font-size="11pt" font-style="normal" font-weight="normal" text-decoration="normal" x="1151.7846374278565" y="2191.6690956790003" text-anchor="start" dominant-baseline="alphabetic" xml:space="preserve">Send Basic Message</text></g><g><path fill="none" stroke="black" paint-order="fill stroke markers" d=" M 1369.1879839441 2198.7057986390005 L 1075.0297269187095 2198.7057986390005" stroke-miterlimit="10" stroke-width="1.4659797833333332" stroke-dasharray=""/><g transform="translate(1072.0977673520429,2198.7057986390005) translate(-1072.0977673520429,-2198.7057986390005)"><path fill="black" stroke="none" paint-order="stroke fill markers" d=" M 1086.7575651853763 2191.375899722334 L 1072.0977673520429 2198.7057986390005 L 1086.7575651853763 2206.035697555667 Z"/></g></g><g><g><rect fill="white" stroke="none" x="877.7356651603698" y="2211.899616689" width="148.6704715559375" height="22.86928462"/></g><text fill="black" stroke="none" font-family="sans-serif" font-size="11pt" font-style="normal" font-weight="normal" text-decoration="normal" x="880.3744287703697" y="2227.732198349" text-anchor="start" dominant-baseline="alphabetic" xml:space="preserve">POST Basic Message</text></g><g><path fill="none" stroke="black" paint-order="fill stroke markers" d=" M 1072.0977673520429 2234.7689013090003 L 834.9759940913008 2234.7689013090003" stroke-miterlimit="10" stroke-width="1.4659797833333332" stroke-dasharray=""/><g transform="translate(832.0440345246341,2234.7689013090003) translate(-832.0440345246341,-2234.7689013090003)"><path fill="black" stroke="none" paint-order="stroke fill markers" d=" M 846.7038323579674 2227.439002392334 L 832.0440345246341 2234.7689013090003 L 846.7038323579674 2242.0988002256668 Z"/></g></g><g><g><rect fill="white" stroke="none" x="685.8280185716204" y="2247.962719359" width="73.688415891875" height="22.86928462"/></g><text fill="black" stroke="none" font-family="sans-serif" font-size="11pt" font-style="normal" font-weight="normal" text-decoration="normal" x="688.4667821816204" y="2263.795301019" text-anchor="start" dominant-baseline="alphabetic" xml:space="preserve">DIDComm</text></g><g><path fill="none" stroke="black" paint-order="fill stroke markers" d=" M 832.0440345246341 2270.832003979 L 616.2323780771484 2270.832003979" stroke-miterlimit="10" stroke-width="1.4659797833333332" stroke-dasharray=""/><g transform="translate(613.3004185104817,2270.832003979) translate(-613.3004185104817,-2270.832003979)"><path fill="black" stroke="none" paint-order="stroke fill markers" d=" M 627.960216343815 2263.5021050623336 L 613.3004185104817 2270.832003979 L 627.960216343815 2278.1619028956666 Z"/></g></g><g><g><rect fill="white" stroke="none" x="412.28836819869133" y="2284.0258220289998" width="161.71983373855468" height="22.86928462"/></g><text fill="black" stroke="none" font-family="sans-serif" font-size="11pt" font-style="normal" font-weight="normal" text-decoration="normal" x="414.92713180869134" y="2299.8584036889997" text-anchor="start" dominant-baseline="alphabetic" xml:space="preserve">Receive Basic Message</text></g><g><path fill="none" stroke="black" paint-order="fill stroke markers" d=" M 613.3004185104817 2306.895106649 L 375.92811119212234 2306.895106649" stroke-miterlimit="10" stroke-width="1.4659797833333332" stroke-dasharray=""/><g transform="translate(372.9961516254557,2306.895106649) translate(-372.9961516254557,-2306.895106649)"><path fill="black" stroke="none" paint-order="stroke fill markers" d=" M 387.65594945878905 2299.5652077323334 L 372.9961516254557 2306.895106649 L 387.65594945878905 2314.2250055656664 Z"/></g></g><g><g><rect fill="white" stroke="none" x="145.21961309345048" y="2320.0889246989996" width="161.71983373855468" height="22.86928462"/></g><text fill="black" stroke="none" font-family="sans-serif" font-size="11pt" font-style="normal" font-weight="normal" text-decoration="normal" x="147.8583767034505" y="2335.9215063589995" text-anchor="start" dominant-baseline="alphabetic" xml:space="preserve">Receive Basic Message</text></g><g><path fill="none" stroke="black" paint-order="fill stroke markers" d=" M 372.9961516254557 2342.9582093189997 L 82.09486786666666 2342.9582093189997" stroke-miterlimit="10" stroke-width="1.4659797833333332" stroke-dasharray=""/><g transform="translate(79.1629083,2342.9582093189997) translate(-79.1629083,-2342.9582093189997)"><path fill="black" stroke="none" paint-order="stroke fill markers" d=" M 93.82270613333333 2335.628310402333 L 79.1629083 2342.9582093189997 L 93.82270613333333 2350.288108235666 Z"/></g></g><g><g/><path fill="none" stroke="black" paint-order="fill stroke markers" d=" M 17.591757400000006 232.826909189 L 674.8715694104817 232.826909189 L 674.8715694104817 470.3156340889999 L 17.591757400000006 470.3156340889999 L 17.591757400000006 232.826909189 Z" stroke-miterlimit="10" stroke-width="2.5131082" stroke-dasharray=""/><path fill="white" stroke="black" paint-order="fill stroke markers" d=" M 17.591757400000006 232.826909189 L 17.591757400000006 253.93701806899998 L 194.21669370878908 253.93701806899998 L 204.77174814878907 243.38196362899998 L 204.77174814878907 232.826909189 L 17.591757400000006 232.826909189" stroke-miterlimit="10" stroke-width="2.5131082" stroke-dasharray=""/><text fill="black" stroke="none" font-family="sans-serif" font-size="8.8pt" font-style="normal" font-weight="bold" text-decoration="normal" x="35.183514800000005" y="246.90031510899996" text-anchor="start" dominant-baseline="alphabetic" xml:space="preserve">Create Invitation Request</text></g><g><g/><path fill="none" stroke="black" paint-order="fill stroke markers" d=" M 311.4250007254557 483.5094521389999 L 1430.7591348441001 483.5094521389999 L 1430.7591348441001 901.3136903890002 L 311.4250007254557 901.3136903890002 L 311.4250007254557 483.5094521389999 Z" stroke-miterlimit="10" stroke-width="2.5131082" stroke-dasharray=""/><path fill="white" stroke="black" paint-order="fill stroke markers" d=" M 311.4250007254557 483.5094521389999 L 311.4250007254557 504.6195610189999 L 453.4900310283854 504.6195610189999 L 464.04508546838537 494.0645065789999 L 464.04508546838537 483.5094521389999 L 311.4250007254557 483.5094521389999" stroke-miterlimit="10" stroke-width="2.5131082" stroke-dasharray=""/><text fill="black" stroke="none" font-family="sans-serif" font-size="8.8pt" font-style="normal" font-weight="bold" text-decoration="normal" x="329.0167581254557" y="497.5828580589999" text-anchor="start" dominant-baseline="alphabetic" xml:space="preserve">Accept Connection</text></g><g><g/><path fill="none" stroke="black" paint-order="fill stroke markers" d=" M 17.591757400000006 914.5075084390002 L 1133.6689182520429 914.5075084390002 L 1133.6689182520429 1237.3162567290003 L 17.591757400000006 1237.3162567290003 L 17.591757400000006 914.5075084390002 Z" stroke-miterlimit="10" stroke-width="2.5131082" stroke-dasharray=""/><path fill="white" stroke="black" paint-order="fill stroke markers" d=" M 17.591757400000006 914.5075084390002 L 17.591757400000006 935.6176173190001 L 209.19423277128908 935.6176173190001 L 219.74928721128907 925.0625628790002 L 219.74928721128907 914.5075084390002 L 17.591757400000006 914.5075084390002" stroke-miterlimit="10" stroke-width="2.5131082" stroke-dasharray=""/><text fill="black" stroke="none" font-family="sans-serif" font-size="8.8pt" font-style="normal" font-weight="bold" text-decoration="normal" x="35.183514800000005" y="928.5809143590002" text-anchor="start" dominant-baseline="alphabetic" xml:space="preserve">Accept Connection Request</text></g><g><g/><path fill="none" stroke="black" paint-order="fill stroke markers" d=" M 17.591757400000006 1250.5100747790002 L 674.8715694104817 1250.5100747790002 L 674.8715694104817 1429.0664123890003 L 17.591757400000006 1429.0664123890003 L 17.591757400000006 1250.5100747790002 Z" stroke-miterlimit="10" stroke-width="2.5131082" stroke-dasharray=""/><path fill="white" stroke="black" paint-order="fill stroke markers" d=" M 17.591757400000006 1250.5100747790002 L 17.591757400000006 1271.6201836590003 L 194.8582037185547 1271.6201836590003 L 205.4132581585547 1261.0651292190003 L 205.4132581585547 1250.5100747790002 L 17.591757400000006 1250.5100747790002" stroke-miterlimit="10" stroke-width="2.5131082" stroke-dasharray=""/><text fill="black" stroke="none" font-family="sans-serif" font-size="8.8pt" font-style="normal" font-weight="bold" text-decoration="normal" x="35.183514800000005" y="1264.5834806990003" text-anchor="start" dominant-baseline="alphabetic" xml:space="preserve">Check Connection Status</text></g><g><g/><path fill="none" stroke="black" paint-order="fill stroke markers" d=" M 17.591757400000006 1442.2602304390002 L 1133.6689182520429 1442.2602304390002 L 1133.6689182520429 1900.5255107090004 L 17.591757400000006 1900.5255107090004 L 17.591757400000006 1442.2602304390002 Z" stroke-miterlimit="10" stroke-width="2.5131082" stroke-dasharray=""/><path fill="white" stroke="black" paint-order="fill stroke markers" d=" M 17.591757400000006 1442.2602304390002 L 17.591757400000006 1463.3703393190003 L 316.7113989089844 1463.3703393190003 L 327.2664533489844 1452.8152848790003 L 327.2664533489844 1442.2602304390002 L 17.591757400000006 1442.2602304390002" stroke-miterlimit="10" stroke-width="2.5131082" stroke-dasharray=""/><text fill="black" stroke="none" font-family="sans-serif" font-size="8.8pt" font-style="normal" font-weight="bold" text-decoration="normal" x="35.183514800000005" y="1456.3336363590004" text-anchor="start" dominant-baseline="alphabetic" xml:space="preserve">Send Trust Ping to Change State of Connection</text></g><g><g/><path fill="none" stroke="black" paint-order="fill stroke markers" d=" M 17.591757400000006 1913.7193287590003 L 1430.7591348441001 1913.7193287590003 L 1430.7591348441001 2128.3387690390005 L 17.591757400000006 2128.3387690390005 L 17.591757400000006 1913.7193287590003 Z" stroke-miterlimit="10" stroke-width="2.5131082" stroke-dasharray=""/><path fill="white" stroke="black" paint-order="fill stroke markers" d=" M 17.591757400000006 1913.7193287590003 L 17.591757400000006 1934.8294376390004 L 325.93280393828127 1934.8294376390004 L 336.48785837828126 1924.2743831990003 L 336.48785837828126 1913.7193287590003 L 17.591757400000006 1913.7193287590003" stroke-miterlimit="10" stroke-width="2.5131082" stroke-dasharray=""/><text fill="black" stroke="none" font-family="sans-serif" font-size="8.8pt" font-style="normal" font-weight="bold" text-decoration="normal" x="35.183514800000005" y="1927.7927346790004" text-anchor="start" dominant-baseline="alphabetic" xml:space="preserve">Send Basic Message - Data Owner to Researcher</text></g><g><g/><path fill="none" stroke="black" paint-order="fill stroke markers" d=" M 17.591757400000006 2141.5325870890006 L 1430.7591348441001 2141.5325870890006 L 1430.7591348441001 2356.152027369 L 17.591757400000006 2356.152027369 L 17.591757400000006 2141.5325870890006 Z" stroke-miterlimit="10" stroke-width="2.5131082" stroke-dasharray=""/><path fill="white" stroke="black" paint-order="fill stroke markers" d=" M 17.591757400000006 2141.5325870890006 L 17.591757400000006 2162.6426959690007 L 325.93280393828127 2162.6426959690007 L 336.48785837828126 2152.0876415290004 L 336.48785837828126 2141.5325870890006 L 17.591757400000006 2141.5325870890006" stroke-miterlimit="10" stroke-width="2.5131082" stroke-dasharray=""/><text fill="black" stroke="none" font-family="sans-serif" font-size="8.8pt" font-style="normal" font-weight="bold" text-decoration="normal" x="35.183514800000005" y="2155.6059930090005" text-anchor="start" dominant-baseline="alphabetic" xml:space="preserve">Send Basic Message - Researcher to Data Owner</text></g></g><g/><g/><g/><g/><g/><g/></g></svg>